# xmcd CD database file
#
# Track frame offsets:
#	150
#	13540
#	32737
#	48427
#	62175
#	76780
#	90287
#	105445
#	123697
#	139090
#	153840
#	169685
#	179985
#	191500
#
# Disc length: 2764 seconds
#
# Revision: 0
# Processed by: cddbd v1.5.1PL0 Copyright (c) Steve Scherf et al.
# Submitted via: CDex 1.51
#
DISCID=b00aca0e
DTITLE=Lo Mejor del Norte - Lo Mejor del Norte CD C/C (Exitos)
DYEAR=2004
DGENRE=Norteñas
TTITLE0=Banda Los Lagos - Echenle Gordas Al Perro
TTITLE1=Los Sementales de Nuevo León - El Enyerbado
TTITLE2=Los Pumas del Norte - El Paquetero
TTITLE3=Banda Arkangel - El Dios Huichol
TTITLE4=Los Traviezos del Norte - El Cocodrilo
TTITLE5=Los Caminates - La Mafía Muere
TTITLE6=Banda Puro Culiacán - Regalo Caro
TTITLE7=Los Sementales de Nuevo León - El Árbol de La Horca
TTITLE8=Banda Super Bandido - Pelea de Perros
TTITLE9=Los Pumas del Norte - Las Cuatro Narcas
TTITLE10=Grupo Clave Norteña - Gallo Jugado
TTITLE11=Banda Moreña - Las Parcelas de Mendoza
TTITLE12=Los Reales de Nuevo León - Los Tres Zacatecas
TTITLE13=Los Marineros del Norte - Licenciado en Ventas
EXTD=YEAR: 2004
EXTT0=
EXTT1=
EXTT2=
EXTT3=
EXTT4=
EXTT5=
EXTT6=
EXTT7=
EXTT8=
EXTT9=
EXTT10=
EXTT11=
EXTT12=
EXTT13=
PLAYORDER=
